# Blender v2.92.0 OBJ File: ''
# www.blender.org
mtllib compass.mtl
o Cube
v 2.987529 4.652600 -7.384269
v 1.488158 4.652600 -7.839098
v 1.488158 4.329978 -7.839098
v 2.987529 4.329978 -7.384269
v 4.369357 4.329978 -6.645666
v 4.369357 4.652600 -6.645666
v 5.580540 4.329978 -5.651674
v 5.580540 4.652600 -5.651674
v 6.574533 4.329978 -4.440491
v 6.574533 4.652600 -4.440491
v 7.313134 4.329978 -3.058663
v 7.313134 4.652600 -3.058663
v 7.767963 4.329978 -1.559292
v 7.767963 4.652600 -1.559292
v 7.921541 4.329978 0.000002
v 7.921541 4.652600 0.000002
v 7.767963 4.329978 1.559296
v 7.767963 4.652600 1.559296
v 7.313136 4.329978 3.058667
v 7.313136 4.652600 3.058667
v 6.574533 4.329978 4.440496
v 6.574533 4.652600 4.440496
v 5.580540 4.329978 5.651679
v 5.580540 4.652600 5.651679
v 4.369357 4.329978 6.645671
v 4.369357 4.652600 6.645671
v 2.987528 4.329978 7.384274
v 2.987528 4.652600 7.384274
v 1.488156 4.329978 7.839103
v 1.488156 4.652600 7.839103
v 3.303348 4.668491 -8.111687
v 1.656274 4.668491 -8.611320
v 1.656274 4.314088 -8.611320
v 3.303348 4.314088 -8.111687
v 4.821298 4.314088 -7.300325
v 4.821298 4.668491 -7.300325
v 6.151793 4.314088 -6.208416
v 6.151793 4.668491 -6.208416
v 7.243701 4.314088 -4.877919
v 7.243701 4.668491 -4.877919
v 8.055063 4.314088 -3.359969
v 8.055063 4.668491 -3.359969
v 8.554697 4.314088 -1.712896
v 8.554697 4.668491 -1.712896
v 8.723404 4.314088 0.000002
v 8.723404 4.668491 0.000002
v 8.554697 4.314088 1.712901
v 8.554697 4.668491 1.712901
v 8.055065 4.314088 3.359973
v 8.055065 4.668491 3.359973
v 7.243701 4.314088 4.877925
v 7.243701 4.668491 4.877925
v 6.151793 4.314088 6.208422
v 6.151793 4.668491 6.208422
v 4.821298 4.314088 7.300331
v 4.821298 4.668491 7.300331
v 3.303346 4.314088 8.111693
v 3.303346 4.668491 8.111693
v 1.656272 4.314088 8.611326
v 1.656272 4.668491 8.611326
v 0.861852 4.294228 14.564978
v 1.229539 4.294228 13.306359
v 1.441665 4.294228 12.033597
v 0.960845 4.294228 11.680056
v 0.678009 4.294228 11.354793
v 0.607300 4.294228 10.888114
v 0.694661 4.294228 10.390375
v 0.890136 4.294228 10.039604
v 0.536591 4.294228 9.360800
v -2.987529 4.652600 -7.384269
v -1.488158 4.652600 -7.839098
v 0.000000 4.329978 -7.992676
v 0.000000 4.652600 -7.992676
v -1.488158 4.329978 -7.839098
v -2.987529 4.329978 -7.384269
v -4.369357 4.329978 -6.645666
v -4.369357 4.652600 -6.645666
v -5.580540 4.329978 -5.651674
v -5.580540 4.652600 -5.651674
v -6.574533 4.329978 -4.440491
v -6.574533 4.652600 -4.440491
v -7.313134 4.329978 -3.058663
v -7.313134 4.652600 -3.058663
v -7.767963 4.329978 -1.559292
v -7.767963 4.652600 -1.559292
v -7.921541 4.329978 0.000002
v -7.921541 4.652600 0.000002
v -7.767963 4.329978 1.559296
v -7.767963 4.652600 1.559296
v -7.313136 4.329978 3.058667
v -7.313136 4.652600 3.058667
v -6.574533 4.329978 4.440496
v -6.574533 4.652600 4.440496
v -5.580540 4.329978 5.651679
v -5.580540 4.652600 5.651679
v -4.369357 4.329978 6.645671
v -4.369357 4.652600 6.645671
v -2.987528 4.329978 7.384274
v -2.987528 4.652600 7.384274
v -1.488156 4.329978 7.839103
v -1.488156 4.652600 7.839103
v 0.000000 4.329978 7.992681
v 0.000000 4.652600 7.992681
v -3.303348 4.668491 -8.111687
v -1.656274 4.668491 -8.611320
v 0.000000 4.314088 -8.780027
v 0.000000 4.668491 -8.780027
v -1.656274 4.314088 -8.611320
v -3.303348 4.314088 -8.111687
v -4.821298 4.314088 -7.300325
v -4.821298 4.668491 -7.300325
v -6.151793 4.314088 -6.208416
v -6.151793 4.668491 -6.208416
v -7.243701 4.314088 -4.877919
v -7.243701 4.668491 -4.877919
v -8.055063 4.314088 -3.359969
v -8.055063 4.668491 -3.359969
v -8.554697 4.314088 -1.712896
v -8.554697 4.668491 -1.712896
v -8.723404 4.314088 0.000002
v -8.723404 4.668491 0.000002
v -8.554697 4.314088 1.712901
v -8.554697 4.668491 1.712901
v -8.055065 4.314088 3.359973
v -8.055065 4.668491 3.359973
v -7.243701 4.314088 4.877925
v -7.243701 4.668491 4.877925
v -6.151793 4.314088 6.208422
v -6.151793 4.668491 6.208422
v -4.821298 4.314088 7.300331
v -4.821298 4.668491 7.300331
v -3.303346 4.314088 8.111693
v -3.303346 4.668491 8.111693
v -1.656272 4.314088 8.611326
v -1.656272 4.668491 8.611326
v 0.000000 4.314088 8.780033
v 0.000000 4.668491 8.780033
v -0.861852 4.294228 14.564978
v -1.229539 4.294228 13.306359
v -1.441665 4.294228 12.033597
v -0.960845 4.294228 11.680056
v -0.678009 4.294228 11.354793
v -0.607300 4.294228 10.888114
v -0.694661 4.294228 10.390375
v -0.890136 4.294228 10.039604
v -0.536591 4.294228 9.360800
v 0.000000 4.294228 8.909447
v 0.000000 4.294228 16.265547
v 0.000000 4.516058 9.353980
v 0.000000 4.700196 10.039604
v 0.000000 4.611537 10.397196
v 0.000000 4.591077 10.888114
v 0.000000 4.645637 11.361613
v 0.000000 4.741116 11.686875
v 0.000000 4.904794 12.033597
v 0.000000 4.850235 13.306359
v 0.000000 4.666096 14.564978
v 0.000000 4.072397 9.353980
v 0.000000 3.888260 10.039604
v 0.000000 3.976919 10.397196
v 0.000000 3.997378 10.888114
v 0.000000 3.942819 11.361613
v 0.000000 3.847340 11.686875
v 0.000000 3.683662 12.033597
v 0.000000 3.738221 13.306359
v 0.000000 3.922360 14.564978
vt 0.449553 0.116663
vt 0.419706 0.080294
vt 0.419706 0.080294
vt 0.449553 0.116663
vt 0.341844 0.471731
vt 0.383337 0.449553
vt 0.383337 0.449553
vt 0.341844 0.471731
vt 0.919706 0.080294
vt 0.949553 0.116663
vt 0.949553 0.116663
vt 0.919706 0.080294
vt 0.883337 0.449553
vt 0.841844 0.471731
vt 0.841844 0.471731
vt 0.883337 0.449553
vt 0.471731 0.158156
vt 0.471731 0.158156
vt 0.971731 0.158156
vt 0.971731 0.158156
vt 0.796822 0.485388
vt 0.796822 0.485388
vt 0.750000 0.490000
vt 0.750000 0.490000
vt 0.485388 0.203178
vt 0.485388 0.203178
vt 0.250000 0.490000
vt 0.296822 0.485388
vt 0.296822 0.485388
vt 0.250000 0.490000
vt 0.985388 0.203178
vt 0.985388 0.203178
vt 0.490000 0.250000
vt 0.490000 0.250000
vt 0.990000 0.250000
vt 0.990000 0.250000
vt 0.485388 0.296822
vt 0.485388 0.296822
vt 1.000000 0.500000
vt 1.000000 1.000000
vt 0.968750 1.000000
vt 0.968750 0.500000
vt 0.937500 1.000000
vt 0.937500 0.500000
vt 0.906250 1.000000
vt 0.906250 0.500000
vt 0.875000 1.000000
vt 0.875000 0.500000
vt 0.843750 1.000000
vt 0.843750 0.500000
vt 0.812500 1.000000
vt 0.812500 0.500000
vt 0.781250 1.000000
vt 0.781250 0.500000
vt 0.750000 1.000000
vt 0.750000 0.500000
vt 0.718750 1.000000
vt 0.718750 0.500000
vt 0.687500 1.000000
vt 0.687500 0.500000
vt 0.656250 1.000000
vt 0.656250 0.500000
vt 0.625000 1.000000
vt 0.625000 0.500000
vt 0.593750 1.000000
vt 0.593750 0.500000
vt 0.562500 1.000000
vt 0.562500 0.500000
vt 0.531250 1.000000
vt 0.531250 0.500000
vt 0.500000 1.000000
vt 0.500000 0.500000
vt 0.919706 0.419706
vt 0.919706 0.419706
vt 0.883337 0.050447
vt 0.883337 0.050447
vt 0.419706 0.419706
vt 0.419706 0.419706
vt 0.383337 0.050447
vt 0.383337 0.050447
vt 0.949553 0.383337
vt 0.949553 0.383337
vt 0.841844 0.028269
vt 0.841844 0.028269
vt 0.449553 0.383337
vt 0.449553 0.383337
vt 0.341844 0.028269
vt 0.341844 0.028269
vt 0.971731 0.341844
vt 0.971731 0.341844
vt 0.796822 0.014612
vt 0.796822 0.014612
vt 0.471731 0.341844
vt 0.471731 0.341844
vt 0.296822 0.014612
vt 0.296822 0.014612
vt 0.985388 0.296822
vt 0.985388 0.296822
vt 0.750000 0.010000
vt 0.750000 0.010000
vt 0.250000 0.010000
vt 0.250000 0.010000
vt 0.000000 0.000000
vt 0.000000 0.000000
vt 0.000000 0.000000
vt 0.000000 0.000000
vt 0.000000 0.000000
vt 0.000000 0.000000
vt 0.000000 0.000000
vt 0.000000 0.000000
vt 0.000000 0.000000
vt 0.000000 0.000000
vt 0.000000 0.000000
vt 0.000000 0.000000
vt 0.000000 0.000000
vt 0.000000 0.000000
vt 0.000000 0.000000
vt 0.000000 0.000000
vt 0.000000 0.000000
vt 0.000000 0.000000
vt 0.000000 0.000000
vt 0.000000 0.000000
vt 0.000000 0.000000
vt 0.000000 0.000000
vt 0.000000 0.000000
vt 0.000000 0.000000
vt 0.000000 0.000000
vt 0.000000 0.000000
vt 0.000000 0.000000
vt 0.000000 0.000000
vt 0.000000 0.000000
vt 0.449553 0.116663
vt 0.449553 0.116663
vt 0.419706 0.080294
vt 0.419706 0.080294
vt 0.341844 0.471731
vt 0.341844 0.471731
vt 0.383337 0.449553
vt 0.383337 0.449553
vt 0.919706 0.080294
vt 0.919706 0.080294
vt 0.949553 0.116663
vt 0.949553 0.116663
vt 0.883337 0.449553
vt 0.883337 0.449553
vt 0.841844 0.471731
vt 0.841844 0.471731
vt 0.471731 0.158156
vt 0.471731 0.158156
vt 0.971731 0.158156
vt 0.971731 0.158156
vt 0.796822 0.485388
vt 0.796822 0.485388
vt 0.485388 0.203178
vt 0.485388 0.203178
vt 0.296822 0.485388
vt 0.296822 0.485388
vt 0.985388 0.203178
vt 0.985388 0.203178
vt 0.490000 0.250000
vt 0.490000 0.250000
vt 0.990000 0.250000
vt 0.990000 0.250000
vt 0.485388 0.296822
vt 0.485388 0.296822
vt 0.968750 0.500000
vt 0.968750 1.000000
vt 0.937500 0.500000
vt 0.937500 1.000000
vt 0.906250 0.500000
vt 0.906250 1.000000
vt 0.875000 0.500000
vt 0.875000 1.000000
vt 0.843750 0.500000
vt 0.843750 1.000000
vt 0.812500 0.500000
vt 0.812500 1.000000
vt 0.781250 0.500000
vt 0.781250 1.000000
vt 0.750000 0.500000
vt 0.750000 1.000000
vt 0.718750 0.500000
vt 0.718750 1.000000
vt 0.687500 0.500000
vt 0.687500 1.000000
vt 0.656250 0.500000
vt 0.656250 1.000000
vt 0.625000 0.500000
vt 0.625000 1.000000
vt 0.593750 0.500000
vt 0.593750 1.000000
vt 0.562500 0.500000
vt 0.562500 1.000000
vt 0.531250 0.500000
vt 0.531250 1.000000
vt 0.919706 0.419706
vt 0.919706 0.419706
vt 0.883337 0.050447
vt 0.883337 0.050447
vt 0.419706 0.419706
vt 0.419706 0.419706
vt 0.383337 0.050447
vt 0.383337 0.050447
vt 0.949553 0.383337
vt 0.949553 0.383337
vt 0.841844 0.028269
vt 0.841844 0.028269
vt 0.449553 0.383337
vt 0.449553 0.383337
vt 0.341844 0.028269
vt 0.341844 0.028269
vt 0.971731 0.341844
vt 0.971731 0.341844
vt 0.796822 0.014612
vt 0.796822 0.014612
vt 0.471731 0.341844
vt 0.471731 0.341844
vt 0.296822 0.014612
vt 0.296822 0.014612
vt 0.985388 0.296822
vt 0.985388 0.296822
vt 0.000000 0.000000
vt 0.000000 0.000000
vt 0.000000 0.000000
vt 0.000000 0.000000
vt 0.000000 0.000000
vt 0.000000 0.000000
vt 0.000000 0.000000
vt 0.000000 0.000000
vt 0.000000 0.000000
vn -0.0155 0.9998 -0.0127
vn -0.0095 0.9998 0.0177
vn -0.0155 -0.9998 -0.0127
vn -0.0095 -0.9998 0.0177
vn -0.0176 0.9998 -0.0094
vn -0.0176 -0.9998 -0.0094
vn -0.0059 -0.9998 0.0193
vn -0.0021 -0.9998 0.0202
vn -0.0191 0.9998 -0.0058
vn -0.0021 0.9998 0.0202
vn -0.0191 -0.9998 -0.0058
vn -0.0059 0.9998 0.0193
vn -0.0198 0.9998 -0.0020
vn -0.0198 -0.9998 -0.0020
vn -0.0198 0.9998 0.0020
vn 0.1013 0.0000 -0.9949
vn 0.2903 0.0000 -0.9569
vn 0.4714 0.0000 -0.8819
vn 0.6344 0.0000 -0.7730
vn 0.7730 0.0000 -0.6344
vn 0.8819 0.0000 -0.4714
vn 0.9569 0.0000 -0.2903
vn 0.9952 0.0000 -0.0980
vn 0.9952 0.0000 0.0980
vn 0.9569 0.0000 0.2903
vn 0.8819 0.0000 0.4714
vn 0.7730 0.0000 0.6344
vn 0.6344 0.0000 0.7730
vn 0.4714 0.0000 0.8819
vn 0.2903 0.0000 0.9569
vn 0.1013 0.0000 0.9949
vn -0.0127 -0.9998 0.0155
vn -0.0127 -0.9998 -0.0155
vn -0.0127 0.9998 0.0155
vn -0.0127 0.9998 -0.0155
vn -0.0155 -0.9998 0.0127
vn -0.0095 -0.9998 -0.0177
vn -0.0155 0.9998 0.0127
vn -0.0095 0.9998 -0.0177
vn -0.0176 -0.9998 0.0094
vn -0.0059 -0.9998 -0.0193
vn -0.0176 0.9998 0.0094
vn -0.0059 0.9998 -0.0193
vn -0.0191 -0.9998 0.0058
vn -0.0021 -0.9998 -0.0202
vn -0.0191 0.9998 0.0058
vn -0.0021 0.9998 -0.0202
vn -0.0198 -0.9998 0.0020
vn -0.9569 0.0000 -0.2903
vn -0.8819 0.0000 -0.4714
vn -0.7730 0.0000 -0.6344
vn -0.6344 0.0000 -0.7730
vn -0.4714 0.0000 -0.8819
vn -0.2903 0.0000 -0.9569
vn -0.1027 0.0000 -0.9947
vn -0.1027 0.0000 0.9947
vn -0.2903 0.0000 0.9569
vn -0.4714 0.0000 0.8819
vn -0.6344 0.0000 0.7730
vn -0.7730 0.0000 0.6344
vn -0.8819 0.0000 0.4714
vn -0.9569 0.0000 0.2903
vn -0.9952 0.0000 0.0980
vn -0.9952 0.0000 -0.0980
vn 0.3516 0.8376 -0.4180
vn 0.3936 0.8920 -0.2224
vn 0.4055 0.8865 0.2229
vn 0.4262 0.9029 0.0563
vn 0.4483 0.8898 -0.0854
vn 0.4148 0.8569 -0.3061
vn 0.3607 0.8224 -0.4399
vn 0.3997 0.9151 0.0529
vn 0.4024 0.9069 0.1251
vn 0.3884 0.9002 0.1969
vn 0.3516 -0.8376 -0.4180
vn 0.3936 -0.8920 -0.2224
vn 0.4055 -0.8865 0.2229
vn 0.4262 -0.9029 0.0563
vn 0.4483 -0.8898 -0.0854
vn 0.4148 -0.8569 -0.3061
vn 0.3607 -0.8224 -0.4399
vn 0.3997 -0.9151 0.0529
vn 0.4024 -0.9069 0.1251
vn 0.3884 -0.9002 0.1969
vn 0.0155 0.9998 -0.0127
vn 0.0095 0.9998 0.0177
vn 0.0155 -0.9998 -0.0127
vn 0.0095 -0.9998 0.0177
vn 0.0176 0.9998 -0.0094
vn 0.0176 -0.9998 -0.0094
vn 0.0059 -0.9998 0.0193
vn 0.0021 -0.9998 0.0202
vn 0.0191 0.9998 -0.0058
vn 0.0021 0.9998 0.0202
vn 0.0191 -0.9998 -0.0058
vn 0.0059 0.9998 0.0193
vn 0.0198 0.9998 -0.0020
vn 0.0198 -0.9998 -0.0020
vn 0.0198 0.9998 0.0020
vn -0.1013 0.0000 -0.9949
vn -0.1013 0.0000 0.9949
vn 0.0127 -0.9998 0.0155
vn 0.0127 -0.9998 -0.0155
vn 0.0127 0.9998 0.0155
vn 0.0127 0.9998 -0.0155
vn 0.0155 -0.9998 0.0127
vn 0.0095 -0.9998 -0.0177
vn 0.0155 0.9998 0.0127
vn 0.0095 0.9998 -0.0177
vn 0.0176 -0.9998 0.0094
vn 0.0059 -0.9998 -0.0193
vn 0.0176 0.9998 0.0094
vn 0.0059 0.9998 -0.0193
vn 0.0191 -0.9998 0.0058
vn 0.0021 -0.9998 -0.0202
vn 0.0191 0.9998 0.0058
vn 0.0021 0.9998 -0.0202
vn 0.0198 -0.9998 0.0020
vn 0.1027 0.0000 -0.9947
vn 0.1027 0.0000 0.9947
vn -0.3516 0.8376 -0.4180
vn -0.3936 0.8920 -0.2224
vn -0.4055 0.8865 0.2229
vn -0.4262 0.9029 0.0563
vn -0.4483 0.8898 -0.0854
vn -0.4148 0.8569 -0.3061
vn -0.3607 0.8224 -0.4399
vn -0.3997 0.9151 0.0529
vn -0.4024 0.9069 0.1251
vn -0.3884 0.9002 0.1969
vn -0.3516 -0.8376 -0.4180
vn -0.3936 -0.8920 -0.2224
vn -0.4055 -0.8865 0.2229
vn -0.4262 -0.9029 0.0563
vn -0.4483 -0.8898 -0.0854
vn -0.4148 -0.8569 -0.3061
vn -0.3607 -0.8224 -0.4399
vn -0.3997 -0.9151 0.0529
vn -0.4024 -0.9069 0.1251
vn -0.3884 -0.9002 0.1969
usemtl Material
s off
f 22/1/1 24/2/1 54/3/1 52/4/1
f 1/5/2 6/6/2 36/7/2 31/8/2
f 23/9/3 21/10/3 51/11/3 53/12/3
f 5/13/4 4/14/4 34/15/4 35/16/4
f 20/17/5 22/1/5 52/4/5 50/18/5
f 21/10/6 19/19/6 49/20/6 51/11/6
f 4/14/7 3/21/7 33/22/7 34/15/7
f 3/21/8 72/23/8 106/24/8 33/22/8
f 18/25/9 20/17/9 50/18/9 48/26/9
f 73/27/10 2/28/10 32/29/10 107/30/10
f 19/19/11 17/31/11 47/32/11 49/20/11
f 2/28/12 1/5/12 31/8/12 32/29/12
f 16/33/13 18/25/13 48/26/13 46/34/13
f 17/31/14 15/35/14 45/36/14 47/32/14
f 14/37/15 16/33/15 46/34/15 44/38/15
f 106/39/16 107/40/16 32/41/16 33/42/16
f 33/42/17 32/41/17 31/43/17 34/44/17
f 34/44/18 31/43/18 36/45/18 35/46/18
f 35/46/19 36/45/19 38/47/19 37/48/19
f 37/48/20 38/47/20 40/49/20 39/50/20
f 39/50/21 40/49/21 42/51/21 41/52/21
f 41/52/22 42/51/22 44/53/22 43/54/22
f 43/54/23 44/53/23 46/55/23 45/56/23
f 45/56/24 46/55/24 48/57/24 47/58/24
f 47/58/25 48/57/25 50/59/25 49/60/25
f 49/60/26 50/59/26 52/61/26 51/62/26
f 51/62/27 52/61/27 54/63/27 53/64/27
f 53/64/28 54/63/28 56/65/28 55/66/28
f 55/66/29 56/65/29 58/67/29 57/68/29
f 57/68/30 58/67/30 60/69/30 59/70/30
f 59/70/31 60/69/31 137/71/31 136/72/31
f 7/73/32 5/13/32 35/16/32 37/74/32
f 25/75/33 23/9/33 53/12/33 55/76/33
f 6/6/34 8/77/34 38/78/34 36/7/34
f 24/2/35 26/79/35 56/80/35 54/3/35
f 9/81/36 7/73/36 37/74/36 39/82/36
f 27/83/37 25/75/37 55/76/37 57/84/37
f 8/77/38 10/85/38 40/86/38 38/78/38
f 26/79/39 28/87/39 58/88/39 56/80/39
f 11/89/40 9/81/40 39/82/40 41/90/40
f 29/91/41 27/83/41 57/84/41 59/92/41
f 10/85/42 12/93/42 42/94/42 40/86/42
f 28/87/43 30/95/43 60/96/43 58/88/43
f 13/97/44 11/89/44 41/90/44 43/98/44
f 102/99/45 29/91/45 59/92/45 136/100/45
f 12/93/46 14/37/46 44/38/46 42/94/46
f 30/95/47 103/101/47 137/102/47 60/96/47
f 15/35/48 13/97/48 43/98/48 45/36/48
f 17/31/49 19/19/49 20/17/49 18/25/49
f 19/19/50 21/10/50 22/1/50 20/17/50
f 22/1/51 21/10/51 23/9/51 24/2/51
f 24/2/52 23/9/52 25/75/52 26/79/52
f 26/79/53 25/75/53 27/83/53 28/87/53
f 28/87/54 27/83/54 29/91/54 30/95/54
f 30/95/55 29/91/55 102/99/55 103/101/55
f 73/27/56 72/23/56 3/21/56 2/28/56
f 2/28/57 3/21/57 4/14/57 1/5/57
f 1/5/58 4/14/58 5/13/58 6/6/58
f 6/6/59 5/13/59 7/73/59 8/77/59
f 8/77/60 7/73/60 9/81/60 10/85/60
f 10/85/61 9/81/61 11/89/61 12/93/61
f 12/93/62 11/89/62 13/97/62 14/37/62
f 14/37/63 13/97/63 15/35/63 16/33/63
f 16/33/64 15/35/64 17/31/64 18/25/64
f 69/103/65 147/104/65 149/105/65
f 68/106/66 69/103/66 149/105/66 150/107/66
f 67/108/67 68/106/67 150/107/67 151/109/67
f 66/110/68 67/108/68 151/109/68 152/111/68
f 65/112/69 66/110/69 152/111/69 153/113/69
f 64/114/70 65/112/70 153/113/70 154/115/70
f 63/116/71 64/114/71 154/115/71 155/117/71
f 62/118/72 63/116/72 155/117/72 156/119/72
f 61/120/73 62/118/73 156/119/73 157/121/73
f 148/122/74 61/120/74 157/121/74
f 69/103/75 158/123/75 147/104/75
f 68/106/76 159/124/76 158/123/76 69/103/76
f 67/108/77 160/125/77 159/124/77 68/106/77
f 66/110/78 161/126/78 160/125/78 67/108/78
f 65/112/79 162/127/79 161/126/79 66/110/79
f 64/114/80 163/128/80 162/127/80 65/112/80
f 63/116/81 164/129/81 163/128/81 64/114/81
f 62/118/82 165/130/82 164/129/82 63/116/82
f 61/120/83 166/131/83 165/130/83 62/118/83
f 148/122/84 166/131/84 61/120/84
f 93/132/85 127/133/85 129/134/85 95/135/85
f 70/136/86 104/137/86 111/138/86 77/139/86
f 94/140/87 128/141/87 126/142/87 92/143/87
f 76/144/88 110/145/88 109/146/88 75/147/88
f 91/148/89 125/149/89 127/133/89 93/132/89
f 92/143/90 126/142/90 124/150/90 90/151/90
f 75/147/91 109/146/91 108/152/91 74/153/91
f 74/153/92 108/152/92 106/24/92 72/23/92
f 89/154/93 123/155/93 125/149/93 91/148/93
f 73/27/94 107/30/94 105/156/94 71/157/94
f 90/151/95 124/150/95 122/158/95 88/159/95
f 71/157/96 105/156/96 104/137/96 70/136/96
f 87/160/97 121/161/97 123/155/97 89/154/97
f 88/159/98 122/158/98 120/162/98 86/163/98
f 85/164/99 119/165/99 121/161/99 87/160/99
f 106/39/100 108/166/100 105/167/100 107/40/100
f 108/166/54 109/168/54 104/169/54 105/167/54
f 109/168/53 110/170/53 111/171/53 104/169/53
f 110/170/52 112/172/52 113/173/52 111/171/52
f 112/172/51 114/174/51 115/175/51 113/173/51
f 114/174/50 116/176/50 117/177/50 115/175/50
f 116/176/49 118/178/49 119/179/49 117/177/49
f 118/178/64 120/180/64 121/181/64 119/179/64
f 120/180/63 122/182/63 123/183/63 121/181/63
f 122/182/62 124/184/62 125/185/62 123/183/62
f 124/184/61 126/186/61 127/187/61 125/185/61
f 126/186/60 128/188/60 129/189/60 127/187/60
f 128/188/59 130/190/59 131/191/59 129/189/59
f 130/190/58 132/192/58 133/193/58 131/191/58
f 132/192/57 134/194/57 135/195/57 133/193/57
f 134/194/101 136/72/101 137/71/101 135/195/101
f 78/196/102 112/197/102 110/145/102 76/144/102
f 96/198/103 130/199/103 128/141/103 94/140/103
f 77/139/104 111/138/104 113/200/104 79/201/104
f 95/135/105 129/134/105 131/202/105 97/203/105
f 80/204/106 114/205/106 112/197/106 78/196/106
f 98/206/107 132/207/107 130/199/107 96/198/107
f 79/201/108 113/200/108 115/208/108 81/209/108
f 97/203/109 131/202/109 133/210/109 99/211/109
f 82/212/110 116/213/110 114/205/110 80/204/110
f 100/214/111 134/215/111 132/207/111 98/206/111
f 81/209/112 115/208/112 117/216/112 83/217/112
f 99/211/113 133/210/113 135/218/113 101/219/113
f 84/220/114 118/221/114 116/213/114 82/212/114
f 102/99/115 136/100/115 134/215/115 100/214/115
f 83/217/116 117/216/116 119/165/116 85/164/116
f 101/219/117 135/218/117 137/102/117 103/101/117
f 86/163/118 120/162/118 118/221/118 84/220/118
f 88/159/22 89/154/22 91/148/22 90/151/22
f 90/151/21 91/148/21 93/132/21 92/143/21
f 93/132/20 95/135/20 94/140/20 92/143/20
f 95/135/19 97/203/19 96/198/19 94/140/19
f 97/203/18 99/211/18 98/206/18 96/198/18
f 99/211/17 101/219/17 100/214/17 98/206/17
f 101/219/119 103/101/119 102/99/119 100/214/119
f 73/27/120 71/157/120 74/153/120 72/23/120
f 71/157/30 70/136/30 75/147/30 74/153/30
f 70/136/29 77/139/29 76/144/29 75/147/29
f 77/139/28 79/201/28 78/196/28 76/144/28
f 79/201/27 81/209/27 80/204/27 78/196/27
f 81/209/26 83/217/26 82/212/26 80/204/26
f 83/217/25 85/164/25 84/220/25 82/212/25
f 85/164/24 87/160/24 86/163/24 84/220/24
f 87/160/23 89/154/23 88/159/23 86/163/23
f 146/222/121 149/105/121 147/104/121
f 145/223/122 150/107/122 149/105/122 146/222/122
f 144/224/123 151/109/123 150/107/123 145/223/123
f 143/225/124 152/111/124 151/109/124 144/224/124
f 142/226/125 153/113/125 152/111/125 143/225/125
f 141/227/126 154/115/126 153/113/126 142/226/126
f 140/228/127 155/117/127 154/115/127 141/227/127
f 139/229/128 156/119/128 155/117/128 140/228/128
f 138/230/129 157/121/129 156/119/129 139/229/129
f 148/122/130 157/121/130 138/230/130
f 146/222/131 147/104/131 158/123/131
f 145/223/132 146/222/132 158/123/132 159/124/132
f 144/224/133 145/223/133 159/124/133 160/125/133
f 143/225/134 144/224/134 160/125/134 161/126/134
f 142/226/135 143/225/135 161/126/135 162/127/135
f 141/227/136 142/226/136 162/127/136 163/128/136
f 140/228/137 141/227/137 163/128/137 164/129/137
f 139/229/138 140/228/138 164/129/138 165/130/138
f 138/230/139 139/229/139 165/130/139 166/131/139
f 148/122/140 138/230/140 166/131/140
